# xmcd
#
# Track frame offsets:
#	150
#	10059
#	29763
#	49696
#	64831
#	76240
#	94217
#	108239
#	123876
#	137670
#	152769
#	169129
#
# Disc length: 2418 seconds
# Revision: 0
# Processed by: cddbd v1.5.2PL0 Copyright (c) Steve Scherf et al.
# Submitted via: dBpowerAMP V12.0
#
DISCID=9509700c
DTITLE=The Farm Hands - Dig in the Dirt
DYEAR=2016
DGENRE=Pinecastle
TTITLE0=Dig in the Dirt
TTITLE1=All the Way Home
TTITLE2=This Time's for the Lord
TTITLE3=I Would
TTITLE4=It'll Getcha Where You're Goin'
TTITLE5=The Selfishness in Man
TTITLE6=Homefolks
TTITLE7=Rezo Ride
TTITLE8=Medals for Mother
TTITLE9=It's the Love
TTITLE10=Mansion on Main
TTITLE11=I Saw the Light
EXTD=
EXTT0=
EXTT1=
EXTT2=
EXTT3=
EXTT4=
EXTT5=
EXTT6=
EXTT7=
EXTT8=
EXTT9=
EXTT10=
EXTT11=
PLAYORDER=
